<svg width="500" height="500" viewBox="0 0 500 500" fill="none" xmlns="http://www.w3.org/2000/svg">
<rect width="500" height="500" fill="#271C1C"/>
<path fill-rule="evenodd" clip-rule="evenodd" d="M176.97 48.0066C176.213 48.2751 175.457 48.5477 174.704 48.8246C94.4113 78.3275 37.1321 155.475 37.1321 246C37.1321 294.523 53.589 339.202 81.2259 374.76C119.647 424.194 179.675 456 247.132 456C308.355 456 363.458 429.801 401.843 388.003C436.175 350.62 457.132 300.757 457.132 246C457.132 130.02 363.112 36 247.132 36C222.527 36 198.911 40.2316 176.97 48.0066ZM324.004 209.561C339.983 260.88 366.142 317.872 389.527 364.112C416.134 332.07 432.132 290.903 432.132 246C432.132 143.827 349.305 61 247.132 61C144.959 61 62.1321 143.827 62.1321 246C62.1321 285.137 74.2851 321.436 95.0232 351.328C131.888 287.537 174.836 203.202 184.931 141.545C194.879 200.811 210.226 261.358 210.226 261.358C210.226 261.358 232.126 174.96 240.562 107.554C249.284 194.13 291.566 328.358 291.566 328.358C291.566 328.358 309.171 272.471 324.004 209.561Z" fill="url(#paint0_linear_5_158)"/>
<defs>
<linearGradient id="paint0_linear_5_158" x1="247" y1="36" x2="229.5" y2="456" gradientUnits="userSpaceOnUse">
<stop stop-color="#15B341"/>
<stop offset="1" stop-color="#569E6A"/>
</linearGradient>
</defs>
</svg>
