<svg width="568" height="568" viewBox="0 0 568 568" fill="none" xmlns="http://www.w3.org/2000/svg">
<circle cx="284" cy="284" r="284" fill="#306C3F"/>
<path fill-rule="evenodd" clip-rule="evenodd" d="M253.134 401.664C250.509 401.716 247.867 400.741 245.864 398.737L127.929 280.802C124.024 276.897 124.024 270.565 127.929 266.66L163.586 231.003C167.492 227.097 173.823 227.097 177.729 231.003L246.063 299.337C249.968 303.242 256.3 303.242 260.205 299.337L390.613 168.929C394.519 165.024 400.85 165.024 404.756 168.929L440.413 204.586C444.318 208.492 444.318 214.823 440.413 218.729L260.404 398.737C258.401 400.741 255.759 401.716 253.134 401.664Z" fill="white"/>
</svg>
