<svg width="24" height="24" viewBox="0 0 24 24" fill="none" xmlns="http://www.w3.org/2000/svg">
<circle cx="12" cy="12" r="12" fill="#306C3F"/>
<path fill-rule="evenodd" clip-rule="evenodd" d="M10.6958 16.7326C10.437 16.7347 10.1777 16.6371 9.98028 16.4397L5.81376 12.2732C5.42323 11.8827 5.42324 11.2495 5.81376 10.859L6.50376 10.169C6.89428 9.77846 7.52745 9.77846 7.91797 10.169L9.98869 12.2397C10.3792 12.6302 11.0124 12.6302 11.4029 12.2397L16.0965 7.54615C16.487 7.15563 17.1201 7.15563 17.5107 7.54615L18.2007 8.23615C18.5912 8.62667 18.5912 9.25984 18.2007 9.65036L11.4113 16.4397C11.2139 16.6371 10.9545 16.7347 10.6958 16.7326Z" fill="white"/>
</svg>
